<?xml version="1.0" encoding="UTF-8"?>
<svg width="32" height="32" viewBox="0 0 32 32" xmlns="http://www.w3.org/2000/svg">
  <!-- Background gradient -->
  <defs>
    <linearGradient id="logoGradient" x1="0%" y1="0%" x2="100%" y2="100%">
      <stop offset="0%" style="stop-color:#4A00E0"/>
      <stop offset="100%" style="stop-color:#8E2DE2"/>
    </linearGradient>
    <!-- Neural network pattern -->
    <pattern id="neuralPattern" x="0" y="0" width="8" height="8" patternUnits="userSpaceOnUse">
      <circle cx="4" cy="4" r="1" fill="rgba(255,255,255,0.2)"/>
      <line x1="4" y1="4" x2="8" y2="8" stroke="rgba(255,255,255,0.1)" stroke-width="0.5"/>
    </pattern>
  </defs>
  
  <!-- Main circle background -->
  <circle cx="16" cy="16" r="15" fill="url(#logoGradient)"/>
  
  <!-- Neural network overlay -->
  <circle cx="16" cy="16" r="15" fill="url(#neuralPattern)"/>
  
  <!-- Letter S -->
  <path d="M20.5 11c0-1.5-1.5-2.5-3.5-2.5-2.5 0-4 1.5-4 3.5 0 1.5 1 2.5 3 3l2 0.5c2 0.5 3 1.5 3 3 0 2-2 3.5-4.5 3.5-3 0-4.5-1.5-4.5-3.5"
        stroke="white" stroke-width="2.5" fill="none" stroke-linecap="round"/>
  
  <!-- Decorative dots -->
  <circle cx="8" cy="16" r="1" fill="white"/>
  <circle cx="24" cy="16" r="1" fill="white"/>
  <circle cx="16" cy="8" r="1" fill="white"/>
  <circle cx="16" cy="24" r="1" fill="white"/>
</svg>
