<?xml version="1.0" encoding="UTF-8"?>
<svg width="800" height="600" viewBox="0 0 800 600" xmlns="http://www.w3.org/2000/svg">
  <!-- Background with gradient -->
  <defs>
    <linearGradient id="todoGradient" x1="0%" y1="0%" x2="100%" y2="100%">
      <stop offset="0%" style="stop-color:#FF416C"/>
      <stop offset="100%" style="stop-color:#FF4B2B"/>
    </linearGradient>
  </defs>
  
  <!-- Main container -->
  <rect x="200" y="100" width="400" height="400" rx="20" fill="url(#todoGradient)" opacity="0.9"/>
  
  <!-- Todo items -->
  <!-- Item 1 - Checked -->
  <g transform="translate(240,140)">
    <rect width="320" height="60" rx="10" fill="#ffffff" opacity="0.9"/>
    <rect x="20" y="20" width="20" height="20" rx="5" fill="#FF416C"/>
    <path d="M25,30 L35,40 L45,25" stroke="#ffffff" stroke-width="3" fill="none"/>
    <line x1="80" y1="30" x2="280" y2="30" stroke="#FF416C" stroke-width="2"/>
  </g>
  
  <!-- Item 2 - Unchecked -->
  <g transform="translate(240,220)">
    <rect width="320" height="60" rx="10" fill="#ffffff" opacity="0.9"/>
    <rect x="20" y="20" width="20" height="20" rx="5" fill="none" stroke="#FF416C" stroke-width="2"/>
    <line x1="80" y1="30" x2="280" y2="30" stroke="#666666" stroke-width="2"/>
  </g>
  
  <!-- Item 3 - Checked -->
  <g transform="translate(240,300)">
    <rect width="320" height="60" rx="10" fill="#ffffff" opacity="0.9"/>
    <rect x="20" y="20" width="20" height="20" rx="5" fill="#FF416C"/>
    <path d="M25,30 L35,40 L45,25" stroke="#ffffff" stroke-width="3" fill="none"/>
    <line x1="80" y1="30" x2="280" y2="30" stroke="#FF416C" stroke-width="2"/>
  </g>
  
  <!-- Add button -->
  <circle cx="400" cy="440" r="30" fill="#ffffff" opacity="0.9"/>
  <path d="M385,440 L415,440 M400,425 L400,455" stroke="#FF416C" stroke-width="4"/>
</svg> 